<?xml version="1.0" ?><svg id="Layer_1" style="enable-background:new 0 0 512 512;" version="1.1" viewBox="0 0 512 512" xml:space="preserve" xmlns="http://www.w3.org/2000/svg" xmlns:xlink="http://www.w3.org/1999/xlink"><style type="text/css">
	.st0{fill:none;stroke:#000000;stroke-width:5.8296;stroke-miterlimit:10;}
</style><g id="XMLID_2525_"><path d="M164,446.6c-9.1-16.4-14.8-31-24.3-42.5c-10.8-13-14.7-23.3-6.8-40.1c4.6-9.9,0.2-24.2-0.8-36.4   c-0.6-7.1-5.9-17.3-2.9-20.5c14.4-15.7,5.1-32.3,6.8-48.4c2.6-24.9,5.8-50.5,11.1-75.3c3.8-18,14.9-34.4,21.9-51.9   c14.7-36.9,38.8-63,80.4-65.8c43.6-2.9,78.1,15.1,96.1,55.2c12.7,28.3,19.7,59.1,28.5,89c1.4,4.7-1.9,10.5-2,15.9   c-0.3,12.4,0.4,24.8-0.2,37.1c-0.6,11.8,0.6,24.8-4.2,34.9c-14.7,31.4-13.7,37.7,16.2,54c-19.5,13.2-40.8,12.9-55.4-0.8   c-16.6-15.6-18.5-36.3-6.5-57.5c23.6-41.6,31.2-85.3,14-131.2c-3.3-8.9-9.7-16.7-15-25.5c-18.4,17.1-33.6,32.3-50,46.2   c-8.2,6.9-18.2,12-27.8,16.9c-26.7,13.6-31.2,21.5-24.9,51.2c2.3,11.2,6.8,22.1,11.4,32.6c13.6,31.2,10.5,51.3-16.7,72   c-18.6,14.2-28.3,29.8-25.5,53.6C189.7,430.2,177.6,441.9,164,446.6z" id="XMLID_115_"/><ellipse class="st0" cx="282.7" cy="196.8" id="XMLID_22_" rx="77.7" ry="101.5"/></g></svg>